<svg width="215" height="119" viewBox="0 0 215 119" fill="none" xmlns="http://www.w3.org/2000/svg">
<path d="M102.423 114.198C24.2493 111.785 0.932031 87.8108 2.32032 54.8945C4.65349 -0.425011 174.148 -12.6498 202.124 32.5582C230.099 77.7662 200.139 117.215 102.423 114.198Z" fill="#F5F5F5"/>
<path d="M63.1046 38.8163C67.7046 38.8163 70.6246 41.9363 70.6246 47.1363V59.3763H63.9446V47.8963C63.9446 46.1763 63.1446 45.0963 61.4646 45.0963C59.5846 45.0963 58.7046 46.4563 58.7046 48.4563V59.3763H52.0646V47.8963C52.0646 46.1763 51.2246 45.0963 49.5446 45.0963C47.7046 45.0963 46.7846 46.4563 46.7846 48.4563V59.3763H40.1446V39.3763H46.7846V41.2563C47.8646 39.8163 49.6246 38.8163 52.1846 38.8163C54.5446 38.8163 56.2246 39.7363 57.3046 41.3763C58.5446 39.8563 60.3446 38.8163 63.1046 38.8163Z" fill="black"/>
<path fill-rule="evenodd" clip-rule="evenodd" d="M80.088 51.8163C80.888 53.7363 82.648 54.2563 84.568 54.2563C86.008 54.2563 87.248 53.7763 88.208 52.8563L93.008 56.2163C91.008 58.7363 87.968 59.9363 84.408 59.9363C77.488 59.9363 73.208 55.3363 73.208 49.4163C73.208 43.4163 77.608 38.8163 83.848 38.8163C89.848 38.8163 94.168 43.3363 94.168 49.3363C94.168 50.1763 94.088 50.9763 93.888 51.8163H80.088ZM80.008 47.2163H87.688C87.088 45.1363 85.528 44.4163 83.928 44.4163C82.008 44.4163 80.568 45.3763 80.008 47.2163Z" fill="black"/>
<path d="M127.5 47.1363C127.5 41.9363 124.58 38.8163 119.98 38.8163C117.22 38.8163 115.42 39.8563 114.18 41.3763C113.1 39.7363 111.42 38.8163 109.06 38.8163C106.5 38.8163 104.74 39.8163 103.66 41.2563V39.3763H97.0196V59.3763H103.66V48.4563C103.66 46.4563 104.58 45.0963 106.42 45.0963C108.1 45.0963 108.94 46.1763 108.94 47.8963V59.3763H115.58V48.4563C115.58 46.4563 116.46 45.0963 118.34 45.0963C120.02 45.0963 120.82 46.1763 120.82 47.8963V59.3763H127.5V47.1363Z" fill="black"/>
<path d="M70.6246 72.1363C70.6246 66.9363 67.7046 63.8163 63.1046 63.8163C60.3446 63.8163 58.5446 64.8563 57.3046 66.3763C56.2246 64.7363 54.5446 63.8163 52.1846 63.8163C49.6246 63.8163 47.8646 64.8163 46.7846 66.2563V64.3763H40.1446V84.3763H46.7846V73.4563C46.7846 71.4563 47.7046 70.0963 49.5446 70.0963C51.2246 70.0963 52.0646 71.1763 52.0646 72.8963V84.3763H58.7046V73.4563C58.7046 71.4563 59.5846 70.0963 61.4646 70.0963C63.1446 70.0963 63.9446 71.1763 63.9446 72.8963V84.3763H70.6246V72.1363Z" fill="black"/>
<path d="M93.7112 71.6302C92.1326 71.266 90.9187 70.9859 90.9187 70.2163C90.9187 69.6163 91.4787 69.2563 92.3987 69.2563C93.5187 69.2563 94.3187 69.8563 94.8787 70.9763L100.479 68.4563C98.8387 65.1763 95.8387 63.8163 92.2387 63.8163C88.1587 63.8163 84.1987 66.0163 84.1987 70.5363C84.1987 75.1277 88.3033 76.1864 91.1888 76.9307C92.7528 77.3341 93.9587 77.6452 93.9587 78.3763C93.9587 79.0963 93.3187 79.4563 92.1587 79.4563C90.5987 79.4563 89.5587 78.7363 89.0387 77.2563L83.2387 80.1763C84.8387 83.5763 87.9987 84.9363 92.1987 84.9363C96.2787 84.9363 100.839 83.2163 100.839 78.2163C100.839 73.2749 96.6451 72.3072 93.7112 71.6302Z" fill="black"/>
<path d="M111.485 71.6302C109.906 71.266 108.692 70.9859 108.692 70.2163C108.692 69.6163 109.252 69.2563 110.172 69.2563C111.292 69.2563 112.092 69.8563 112.652 70.9763L118.252 68.4563C116.612 65.1763 113.612 63.8163 110.012 63.8163C105.932 63.8163 101.972 66.0163 101.972 70.5363C101.972 75.1277 106.077 76.1864 108.962 76.9307C110.526 77.3341 111.732 77.6452 111.732 78.3763C111.732 79.0963 111.092 79.4563 109.932 79.4563C108.372 79.4563 107.332 78.7363 106.812 77.2563L101.012 80.1763C102.612 83.5763 105.772 84.9363 109.972 84.9363C114.052 84.9363 118.612 83.2163 118.612 78.2163C118.612 73.2749 114.419 72.3072 111.485 71.6302Z" fill="black"/>
<path d="M174.509 72.4163C174.509 66.6563 171.269 63.8163 167.149 63.8163C164.669 63.8163 162.709 64.7763 161.589 66.3763V64.3763H154.949V84.3763H161.589V73.7363C161.589 71.3363 162.829 70.0963 164.869 70.0963C166.589 70.0963 167.869 71.0963 167.869 73.2563V84.3763H174.509V72.4163Z" fill="black"/>
<path d="M121.199 84.3763V64.3763H127.839V84.3763H121.199Z" fill="black"/>
<path d="M74.2071 64.3763V84.3763H80.8471V64.3763H74.2071Z" fill="black"/>
<path fill-rule="evenodd" clip-rule="evenodd" d="M176.225 48.3797C176.225 54.5378 171.165 59.3763 165.225 59.3763C159.065 59.3763 154.225 54.3179 154.225 48.3797C154.225 42.2217 159.285 37.3832 165.225 37.3832C171.385 37.1633 176.225 42.2217 176.225 48.3797Z" fill="#D5D5D5"/>
<path d="M141.225 59.3763C147.165 59.3763 152.225 54.5363 152.225 48.3763C152.225 42.2163 147.385 37.3763 141.225 37.3763C135.285 37.3763 130.225 42.2163 130.225 48.3763C130.225 54.3163 135.065 59.3763 141.225 59.3763Z" fill="#FF3F56"/>
<path d="M141 85C146.94 85 152 80.16 152 74C152 67.84 147.16 63 141 63C135.06 63 130 67.84 130 74C130 79.94 134.84 85 141 85Z" fill="#FF3F56"/>
</svg>
