<svg width="32" height="47" viewBox="0 0 32 47" fill="none" xmlns="http://www.w3.org/2000/svg">
<path d="M10.392 29.68C10.392 21.936 19.992 19.248 19.992 14.384C19.992 12.528 18.712 11.312 16.216 11.312C13.336 11.312 11.416 13.296 10.072 16.368L0.343994 10.8C3.28799 3.69599 9.68799 0.23999 16.664 0.23999C24.472 0.23999 31.384 4.84799 31.384 12.976C31.384 22.576 21.272 25.264 21.272 29.68H10.392Z" fill="#AAAAAA"/>
<path d="M15.832 46.896C12.12 46.896 9.176 43.952 9.176 40.24C9.176 36.592 12.12 33.584 15.832 33.584C19.544 33.584 22.488 36.592 22.488 40.24C22.488 43.952 19.544 46.896 15.832 46.896Z" fill="#AAAAAA"/>
</svg>
